<svg width="56" height="12" viewBox="0 0 56 12" fill="none" xmlns="http://www.w3.org/2000/svg">
<path d="M0.104 9V0.24H2.816C3.336 0.24 3.792 0.348 4.184 0.564C4.576 0.772 4.88 1.064 5.096 1.44C5.312 1.816 5.42 2.256 5.42 2.76C5.42 3.352 5.264 3.86 4.952 4.284C4.648 4.708 4.232 5 3.704 5.16L5.54 9H4.268L2.588 5.28H1.184V9H0.104ZM1.184 4.308H2.816C3.264 4.308 3.624 4.168 3.896 3.888C4.168 3.6 4.304 3.224 4.304 2.76C4.304 2.288 4.168 1.912 3.896 1.632C3.624 1.352 3.264 1.212 2.816 1.212H1.184V4.308ZM9.21931 9.12C8.52331 9.12 7.97531 8.944 7.57531 8.592C7.17531 8.232 6.97531 7.748 6.97531 7.14C6.97531 6.524 7.17531 6.04 7.57531 5.688C7.97531 5.336 8.51531 5.16 9.19531 5.16H11.2353V4.5C11.2353 4.092 11.1113 3.78 10.8633 3.564C10.6233 3.34 10.2793 3.228 9.83131 3.228C9.43931 3.228 9.11131 3.312 8.84731 3.48C8.58331 3.64 8.43131 3.86 8.39131 4.14H7.31131C7.38331 3.572 7.65131 3.12 8.11531 2.784C8.57931 2.448 9.15931 2.28 9.85531 2.28C10.6153 2.28 11.2153 2.476 11.6553 2.868C12.0953 3.26 12.3153 3.792 12.3153 4.464V9H11.2593V7.74H11.0793L11.2593 7.56C11.2593 8.04 11.0713 8.42 10.6953 8.7C10.3273 8.98 9.83531 9.12 9.21931 9.12ZM9.48331 8.268C9.99531 8.268 10.4153 8.14 10.7433 7.884C11.0713 7.628 11.2353 7.3 11.2353 6.9V5.964H9.21931C8.85931 5.964 8.57531 6.064 8.36731 6.264C8.15931 6.464 8.05531 6.736 8.05531 7.08C8.05531 7.448 8.17931 7.74 8.42731 7.956C8.68331 8.164 9.03531 8.268 9.48331 8.268ZM16.7866 9.096C16.3386 9.096 15.9466 9.028 15.6106 8.892C15.2826 8.748 15.0186 8.548 14.8186 8.292C14.6266 8.036 14.5106 7.732 14.4706 7.38H15.5506C15.5986 7.612 15.7266 7.796 15.9346 7.932C16.1506 8.068 16.4346 8.136 16.7866 8.136H17.2906C17.7146 8.136 18.0306 8.052 18.2386 7.884C18.4466 7.708 18.5506 7.476 18.5506 7.188C18.5506 6.908 18.4546 6.688 18.2626 6.528C18.0786 6.36 17.8026 6.248 17.4346 6.192L16.5466 6.048C15.8986 5.936 15.4146 5.736 15.0946 5.448C14.7826 5.152 14.6266 4.724 14.6266 4.164C14.6266 3.572 14.8146 3.116 15.1906 2.796C15.5666 2.468 16.1306 2.304 16.8826 2.304H17.3386C17.9706 2.304 18.4786 2.452 18.8626 2.748C19.2466 3.044 19.4786 3.444 19.5586 3.948H18.4786C18.4306 3.74 18.3106 3.576 18.1186 3.456C17.9266 3.328 17.6666 3.264 17.3386 3.264H16.8826C16.4746 3.264 16.1746 3.34 15.9826 3.492C15.7986 3.644 15.7066 3.872 15.7066 4.176C15.7066 4.448 15.7866 4.648 15.9466 4.776C16.1066 4.904 16.3586 4.996 16.7026 5.052L17.5906 5.196C18.3026 5.308 18.8186 5.516 19.1386 5.82C19.4666 6.124 19.6306 6.564 19.6306 7.14C19.6306 7.748 19.4346 8.228 19.0426 8.58C18.6586 8.924 18.0746 9.096 17.2906 9.096H16.7866ZM21.3779 9V2.4H22.3259V3.192H22.5419L22.3739 3.48C22.3739 3.112 22.4699 2.82 22.6619 2.604C22.8619 2.388 23.1299 2.28 23.4659 2.28C23.8339 2.28 24.1179 2.416 24.3179 2.688C24.5179 2.96 24.6179 3.344 24.6179 3.84L24.2939 3.192H24.7979L24.5699 3.48C24.5699 3.112 24.6699 2.82 24.8699 2.604C25.0779 2.388 25.3499 2.28 25.6859 2.28C26.1019 2.28 26.4219 2.436 26.6459 2.748C26.8779 3.06 26.9939 3.472 26.9939 3.984V9H25.9979V3.972C25.9979 3.7 25.9379 3.488 25.8179 3.336C25.7059 3.184 25.5379 3.108 25.3139 3.108C25.0979 3.108 24.9259 3.184 24.7979 3.336C24.6779 3.48 24.6179 3.688 24.6179 3.96V9H23.7539V3.972C23.7539 3.692 23.6899 3.48 23.5619 3.336C23.4419 3.184 23.2699 3.108 23.0459 3.108C22.8219 3.108 22.6539 3.184 22.5419 3.336C22.4299 3.48 22.3739 3.688 22.3739 3.96V9H21.3779ZM29.7133 11.16V10.176H31.8133C32.1493 10.176 32.3933 10.1 32.5453 9.948C32.7053 9.796 32.7853 9.56 32.7853 9.24V8.4L32.8093 7.2H32.5933L32.7973 7.02C32.7973 7.5 32.6373 7.88 32.3173 8.16C31.9973 8.44 31.5693 8.58 31.0333 8.58C30.3533 8.58 29.8173 8.36 29.4253 7.92C29.0333 7.472 28.8373 6.872 28.8373 6.12V4.728C28.8373 3.976 29.0333 3.38 29.4253 2.94C29.8173 2.5 30.3533 2.28 31.0333 2.28C31.5693 2.28 31.9973 2.42 32.3173 2.7C32.6373 2.98 32.7973 3.36 32.7973 3.84L32.5933 3.66H32.7973V2.4H33.8653V9.24C33.8653 9.832 33.6813 10.3 33.3133 10.644C32.9533 10.988 32.4493 11.16 31.8013 11.16H29.7133ZM31.3573 7.644C31.8053 7.644 32.1573 7.504 32.4133 7.224C32.6693 6.944 32.7973 6.556 32.7973 6.06V4.8C32.7973 4.304 32.6693 3.916 32.4133 3.636C32.1573 3.356 31.8053 3.216 31.3573 3.216C30.9013 3.216 30.5453 3.352 30.2893 3.624C30.0413 3.896 29.9173 4.288 29.9173 4.8V6.06C29.9173 6.572 30.0413 6.964 30.2893 7.236C30.5453 7.508 30.9013 7.644 31.3573 7.644ZM38.0006 9.12C37.3046 9.12 36.7566 8.944 36.3566 8.592C35.9566 8.232 35.7566 7.748 35.7566 7.14C35.7566 6.524 35.9566 6.04 36.3566 5.688C36.7566 5.336 37.2966 5.16 37.9766 5.16H40.0166V4.5C40.0166 4.092 39.8926 3.78 39.6446 3.564C39.4046 3.34 39.0606 3.228 38.6126 3.228C38.2206 3.228 37.8926 3.312 37.6286 3.48C37.3646 3.64 37.2126 3.86 37.1726 4.14H36.0926C36.1646 3.572 36.4326 3.12 36.8966 2.784C37.3606 2.448 37.9406 2.28 38.6366 2.28C39.3966 2.28 39.9966 2.476 40.4366 2.868C40.8766 3.26 41.0966 3.792 41.0966 4.464V9H40.0406V7.74H39.8606L40.0406 7.56C40.0406 8.04 39.8526 8.42 39.4766 8.7C39.1086 8.98 38.6166 9.12 38.0006 9.12ZM38.2646 8.268C38.7766 8.268 39.1966 8.14 39.5246 7.884C39.8526 7.628 40.0166 7.3 40.0166 6.9V5.964H38.0006C37.6406 5.964 37.3566 6.064 37.1486 6.264C36.9406 6.464 36.8366 6.736 36.8366 7.08C36.8366 7.448 36.9606 7.74 37.2086 7.956C37.4646 8.164 37.8166 8.268 38.2646 8.268ZM45.7719 9.12C45.2439 9.12 44.7879 9.02 44.4039 8.82C44.0279 8.62 43.7359 8.332 43.5279 7.956C43.3279 7.572 43.2279 7.12 43.2279 6.6V2.64C43.2279 2.112 43.3279 1.66 43.5279 1.284C43.7359 0.908 44.0279 0.619999 44.4039 0.42C44.7879 0.22 45.2439 0.12 45.7719 0.12C46.2999 0.12 46.7519 0.22 47.1279 0.42C47.5119 0.619999 47.8039 0.908 48.0039 1.284C48.2119 1.66 48.3159 2.108 48.3159 2.628V6.6C48.3159 7.12 48.2119 7.572 48.0039 7.956C47.8039 8.332 47.5119 8.62 47.1279 8.82C46.7519 9.02 46.2999 9.12 45.7719 9.12ZM45.7719 8.148C46.2439 8.148 46.6039 8.016 46.8519 7.752C47.1079 7.48 47.2359 7.096 47.2359 6.6V2.64C47.2359 2.144 47.1079 1.764 46.8519 1.5C46.6039 1.228 46.2439 1.092 45.7719 1.092C45.3079 1.092 44.9479 1.228 44.6919 1.5C44.4359 1.764 44.3079 2.144 44.3079 2.64V6.6C44.3079 7.096 44.4359 7.48 44.6919 7.752C44.9479 8.016 45.3079 8.148 45.7719 8.148ZM50.7472 9V0.24H51.8272V8.016H55.7872V9H50.7472Z" fill="white"/>
</svg>
