<?xml version="1.0" encoding="UTF-8"?>
<svg width="752pt" height="752pt" version="1.1" viewBox="0 0 752 752" xmlns="http://www.w3.org/2000/svg">
 <path d="m535.93 356.27c-5.4492 0-9.8672 4.418-9.8672 9.8672v55.645l-56.039-55.645c-3.6562-3.9258-8.8477-6.0508-14.207-5.8242-5.3164 0.10156-10.371 2.3438-14.012 6.2188l-44.695 47.457-82.777-90.473v-0.003906c-3.6406-3.9688-8.7461-6.2734-14.129-6.3867-5.3828-0.11328-10.582 1.9805-14.383 5.7969l-95.211 95.504v-200.29c0-5.4492 4.418-9.8672 9.8672-9.8672h325c5.4492 0 9.8633-4.4141 9.8633-9.8633 0-5.4492-4.4141-9.8672-9.8633-9.8672h-325c-7.8516 0-15.379 3.1172-20.93 8.668-5.5508 5.5508-8.668 13.078-8.668 20.93v315.72c0 7.8477 3.1172 15.379 8.668 20.93s13.078 8.668 20.93 8.668h315.72c7.8516 0 15.379-3.1172 20.93-8.668 5.5508-5.5508 8.6719-13.082 8.6719-20.93v-167.73c0-2.6172-1.0391-5.1289-2.8906-6.9766-1.8516-1.8516-4.3594-2.8906-6.9766-2.8906zm-19.734 187.46h-315.72v-0.003907c-5.4492 0-9.8672-4.4141-9.8672-9.8633v-88.207c0.88281-0.375 1.6836-0.91016 2.3672-1.5781l106.85-107.54 122.54 134.08c3.6562 4.0234 9.8789 4.332 13.914 0.69141 1.9609-1.7578 3.1367-4.2266 3.2695-6.8594 0.12891-2.6328-0.80078-5.207-2.5781-7.1484l-26.539-28.906 45.68-48.543 66.992 66.895v-0.003906c0.87109 0.8125 1.8711 1.4805 2.957 1.9727v85.148c0 5.4492-4.418 9.8633-9.8672 9.8633zm47.949-264.61-18.055-17.957 0.003906 65.512c0 5.4453-4.418 9.8633-9.8672 9.8633s-9.8672-4.418-9.8672-9.8633v-65.516l-17.957 18.156c-3.8398 3.8672-10.09 3.8906-13.961 0.046875-3.8672-3.8398-3.8906-10.09-0.046874-13.957l34.73-35.023-0.003906-0.003906c1.8516-1.8672 4.375-2.918 7.0078-2.918 2.6289 0 5.1523 1.0508 7.0039 2.918l34.926 34.73c3.8672 3.8398 3.8906 10.09 0.050781 13.961-3.8438 3.8672-10.094 3.8906-13.961 0.046875z" fill="#0094f5"/>
</svg>
